# xmcd CD database file
#
# Track frame offsets:
#	150
#	14642
#	32765
#	45517
#	60840
#	78607
#	90067
#	106040
#	119055
#	134042
#	148425
#	168310
#	181377
#	199617
#	215865
#	226660
#	243015
#	257910
#	271945
#	287322
#	302690
#	315242
#
# Disc length: 4367 seconds
#
# Revision: 0
# Processed by: cddbd v1.5.2PL0 Copyright (c) Steve Scherf et al.
# Submitted via: CDex 1.70beta2
#
DISCID=2c110d16
DTITLE=Various Artist - Step In Line Once More
DYEAR=2001
DGENRE=Country
TTITLE0=Michael Martin Murphy - Land Of Enchantment
TTITLE1=Anita Cochran - God Created Woman
TTITLE2=Trick Pony - Pour Me
TTITLE3=Travis Tritt - Still In Love With You
TTITLE4=Neal McCoy - This Time I'm Takin' My Time
TTITLE5=John Michael Montgomery - Weekend Superstar
TTITLE6=Claudia Church - This Man I Love
TTITLE7=Michael Peterson - Sure Feels Real Good
TTITLE8=Blake Shelton - She Doesn't Know She's Got It
TTITLE9=Chalee Tennison - I Ain't
TTITLE10=Confederate Railroad - Trashy Women (Dance Mix)
TTITLE11=Leslie Satcher - Texarkana (Wide Open Spaces)
TTITLE12=Paul Brandt - Scrap Piece Of Paper
TTITLE13=Tracy Lawrence - I See It Now
TTITLE14=Dwight Yoakam - A World Of Blue
TTITLE15=Chad Austin - Bruce Is Cuttin' Loose
TTITLE16=Randy Travis - Gonna Walk That Line
TTITLE17=Holly Dunn - As Long As You Belong To Me
TTITLE18=Chad Brock - Yes!
TTITLE19=Craig Morgan - Something To Write Home About
TTITLE20=Greg Holland - You Look Like My Baby
TTITLE21=Brady Seals - Whole Lotta Hurt
EXTD=YEAR: 2001
EXTT0=
EXTT1=
EXTT2=
EXTT3=
EXTT4=
EXTT5=
EXTT6=
EXTT7=
EXTT8=
EXTT9=
EXTT10=
EXTT11=
EXTT12=
EXTT13=
EXTT14=
EXTT15=
EXTT16=
EXTT17=
EXTT18=
EXTT19=
EXTT20=
EXTT21=
PLAYORDER=
